# xmcd
#
# Track frame offsets:
#	150
#	27609
#	53185
#	73380
#	99942
#	123623
#	144961
#	163116
#	183805
#	209413
#	234264
#	255029
#	274540
#	289779
#
# Disc length: 4269 seconds
#
# Revision: 1
# Processed by: cddbd v1.5PL3 Copyright (c) Steve Scherf et al.
# Submitted via: audiograbber 1.83.01
#
DISCID=c610ab0e
DTITLE=Mary Chapin Carpenter - Her Majestys Pleasure
DYEAR=1994
DGENRE=Country
TTITLE0=This Is Love
TTITLE1=Stones In The Road
TTITLE2=Passionate Kisses
TTITLE3=Keeper For Every Flame
TTITLE4=The Last Word
TTITLE5=Shut Up and Kiss Me
TTITLE6=Where Time Stands Still
TTITLE7=The Hard Way
TTITLE8=Quittin' Time
TTITLE9=I Feel Lucky
TTITLE10=He Thinks He'll Keep Her
TTITLE11=This Shirt
TTITLE12=The Last Word
TTITLE13=Come On, Come On
EXTD=Recorded Live at\nHer Majesty's Theatre\nLondon\n4 December 1994
EXTT0=
EXTT1=
EXTT2=
EXTT3=
EXTT4=
EXTT5=
EXTT6=
EXTT7=
EXTT8=
EXTT9=
EXTT10=
EXTT11=
EXTT12=
EXTT13=
PLAYORDER=
